HIERARCHY
ROOT Hips
{
  OFFSET -89.2799 50.1639 -436.387
  CHANNELS 6 Xposition Yposition Zposition Zrotation Xrotation Yrotation
  JOINT Spine
  {
    OFFSET 0 0 0
    CHANNELS 3 Zrotation Xrotation Yrotation
    JOINT Spine1
    {
      OFFSET 19 0 0
      CHANNELS 3 Zrotation Xrotation Yrotation
      JOINT Neck
      {
        OFFSET 22.5 0.6 0
        CHANNELS 3 Zrotation Xrotation Yrotation
        JOINT Head
        {
          OFFSET 14 0.0308777 0
          CHANNELS 3 Zrotation Xrotation Yrotation
          End Site
          {
            OFFSET 17 0 0
          }
        }
      }
      JOINT LeftShoulder
      {
        OFFSET 19.8 3.7 4.3
        CHANNELS 3 Zrotation Xrotation Yrotation
        JOINT LeftArm
        {
          OFFSET 8 0 0
          CHANNELS 3 Zrotation Xrotation Yrotation
          JOINT LeftForeArm
          {
            OFFSET 15.2 0 0
            CHANNELS 3 Zrotation Xrotation Yrotation
            JOINT LeftHand
            {
              OFFSET 17.8 0 0
              CHANNELS 3 Zrotation Xrotation Yrotation
              End Site
              {
                OFFSET 7.2 0 0
              }
            }
          }
        }
      }
      JOINT RightShoulder
      {
        OFFSET 19.8 3.7 -4.3
        CHANNELS 3 Zrotation Xrotation Yrotation
        JOINT RightArm
        {
          OFFSET 8 0 0.151654
          CHANNELS 3 Zrotation Xrotation Yrotation
          JOINT RightForeArm
          {
            OFFSET 15.2 0 0
            CHANNELS 3 Zrotation Xrotation Yrotation
            JOINT RightHand
            {
              OFFSET 17.8 0 0
              CHANNELS 3 Zrotation Xrotation Yrotation
              End Site
              {
                OFFSET 7.2 0 0
              }
            }
          }
        }
      }
    }
  }
  JOINT LeftUpLeg
  {
    OFFSET 5.98425 -7.666 4.78879
    CHANNELS 3 Zrotation Xrotation Yrotation
    JOINT LeftLeg
    {
      OFFSET 16 0 0
      CHANNELS 3 Zrotation Xrotation Yrotation
      JOINT LeftFoot
      {
        OFFSET 18 0 0
        CHANNELS 3 Zrotation Xrotation Yrotation
        End Site
        {
          OFFSET 0 -10.8 0
        }
      }
    }
  }
  JOINT RightUpLeg
  {
    OFFSET 5.98425 -7.66598 -4.78879
    CHANNELS 3 Zrotation Xrotation Yrotation
    JOINT RightLeg
    {
      OFFSET 16 0 0
      CHANNELS 3 Zrotation Xrotation Yrotation
      JOINT RightFoot
      {
        OFFSET 18 0 0
        CHANNELS 3 Zrotation Xrotation Yrotation
        End Site
        {
          OFFSET 0 -10.8 0
        }
      }
    }
  }
  JOINT Tail
  {
    OFFSET 6.83696 -0.722574 0
    CHANNELS 3 Zrotation Xrotation Yrotation
    JOINT Tail1
    {
      OFFSET 12 0 0
      CHANNELS 3 Zrotation Xrotation Yrotation
      End Site
      {
        OFFSET 12 0 0
      }
    }
  }
}
MOTION
Frames:	16
Frame Time:	0.0166667
15.6862 7.99559 -33.8685 126.955 -69.0581 -145.576 -119.309 -4.31471 -8.47828 -6.06929 -1.48524 10.4415 -6.49172 -7.9167 5.34077 -80.0589 80.9342 100.594 -109.516 -35.978 -136.958 42.8459 -64.427 166.889 -81.0217 6.06559 3.56786 6.8644 0.535072 -19.0363 75.8207 -31.641 50.1089 129.612 -64.1754 25.471 -82.8618 -11.7303 -3.72272 4.40138 0.288664 -5.79607 -151.544 50.2194 7.30987 165.594 46.3446 -1.28544 -7.08994 4.5446 29.7319 -127.086 -46.8407 5.30461 161.907 -25.7185 -4.01461 -21.8299 -5.41247 -20.334 91.5465 24.116 -23.7534 13.248 -17.8493 11.6986 
15.7199 7.98013 -33.8648 126.966 -69.1563 -145.551 -119.402 -4.28216 -8.38998 -6.02721 -1.46563 10.255 -6.5314 -7.91592 5.38483 -79.8922 81.0028 100.415 -109.534 -36.0285 -136.909 42.7668 -64.4302 166.727 -80.988 6.04153 3.63894 6.80286 0.53881 -18.9949 75.8472 -31.6083 50.1313 129.679 -64.3342 25.6385 -82.8182 -11.7141 -3.7066 4.43426 0.279939 -5.73054 -151.968 50.3652 7.70751 165.686 46.2986 -1.27476 -7.14605 4.57007 29.9102 -127.602 -47.2108 5.35898 162.001 -26.2696 -4.03593 -21.3269 -5.51729 -20.5804 91.4429 24.1135 -23.6289 13.2414 -17.8673 11.6969 
15.7542 8.00147 -33.8889 127.131 -69.2695 -145.331 -119.392 -4.27204 -8.4011 -6.04005 -1.43733 10.2193 -6.6033 -7.79814 5.26793 -80.7786 80.9254 101.262 -109.506 -36.0386 -136.813 42.7174 -64.4789 166.62 -80.9382 6.09572 3.62662 6.74156 0.545301 -18.9998 75.8525 -31.5727 50.0744 129.466 -64.3779 25.4738 -82.7918 -11.6891 -3.68844 4.568 0.263216 -5.7525 -151.543 50.4371 7.31549 165.649 46.3087 -1.2635 -7.25631 4.46705 29.617 -128.093 -46.6293 5.22898 162.082 -25.6266 -3.97006 -20.7748 -5.59396 -20.361 91.3175 24.1339 -23.4394 13.31 -17.9362 11.7319 
15.7324 8.02294 -33.9094 127.303 -69.2078 -145.18 -119.284 -4.31056 -8.47696 -6.05139 -1.44613 10.3231 -6.65017 -7.76332 5.16468 -81.0985 80.8848 101.527 -109.487 -36.0038 -136.829 42.8153 -64.4744 166.716 -80.9649 6.0859 3.56942 6.8373 0.53998 -19.0484 75.8148 -31.6049 50.0125 129.319 -64.3842 25.285 -82.8087 -11.6926 -3.64101 4.70508 0.252383 -5.81981 -150.773 50.1896 6.58391 165.534 46.2021 -1.27385 -7.18547 4.3854 29.2035 -127.906 -46.129 5.02449 162.041 -24.8702 -3.92797 -20.8856 -5.5504 -20.0494 91.3794 24.1945 -23.4305 13.3641 -17.9727 11.74 
15.7136 8.00568 -33.8963 127.276 -69.1228 -145.273 -119.322 -4.30705 -8.44077 -5.98782 -1.45347 10.2763 -6.64875 -7.86402 5.20733 -80.0904 81.0577 100.434 -109.513 -35.9944 -136.917 43.0195 -64.4156 166.927 -80.9486 6.07647 3.56329 6.86216 0.529224 -18.9236 75.7873 -31.6524 50.0179 129.4 -64.4161 25.3257 -82.777 -11.809 -3.60857 4.59073 0.275151 -5.872 -150.945 50.0215 6.75173 165.565 46.1093 -1.28506 -7.1062 4.4404 29.3455 -127.507 -46.4873 5.2052 161.961 -25.2298 -3.97525 -21.2297 -5.49592 -20.1051 91.4704 24.2206 -23.5041 13.3245 -17.9464 11.7001 
15.7126 8.00344 -33.8902 127.199 -69.1147 -145.355 -119.415 -4.28102 -8.44215 -5.91978 -1.43212 10.2955 -6.62702 -7.97375 5.24515 -79.2124 81.197 99.4217 -109.514 -35.9876 -136.934 43.2941 -64.4314 167.151 -80.8406 6.09365 3.6049 6.75881 0.529134 -18.8054 75.8102 -31.6302 50.0501 129.244 -64.3356 25.2117 -82.6997 -11.8132 -3.63921 4.49322 0.289238 -5.89146 -151.208 50.08 7.05214 165.6 46.184 -1.27956 -7.15959 4.47044 29.532 -127.356 -46.4048 5.34477 161.943 -25.1756 -3.97196 -21.3441 -5.47365 -20.0655 91.498 24.1767 -23.5658 13.2566 -17.9081 11.6961 
15.7276 8.01664 -33.8979 127.244 -69.1713 -145.272 -119.538 -4.26203 -8.48309 -5.77434 -1.39247 10.3364 -6.68055 -7.94567 5.22199 -78.9372 81.3119 99.1619 -109.501 -35.9995 -136.875 43.5396 -64.4331 167.425 -80.7539 6.07884 3.59935 6.70092 0.535752 -18.7998 75.8531 -31.5746 50.0805 128.773 -64.2395 24.7984 -82.6215 -11.6399 -3.71373 4.54103 0.275437 -5.82088 -151.156 50.252 7.10642 165.586 46.3348 -1.26727 -7.28301 4.43999 29.5429 -127.52 -46.2391 5.2682 161.986 -25.1325 -3.95534 -21.2415 -5.49885 -20.1178 91.4674 24.1323 -23.5493 13.2689 -17.8971 11.7455 
15.7388 8.00969 -33.8967 127.328 -69.1836 -145.162 -119.58 -4.24963 -8.50065 -5.70813 -1.37041 10.3553 -6.74648 -7.87117 5.08726 -79.4746 81.2025 99.8761 -109.483 -35.9887 -136.847 43.6241 -64.3904 167.532 -80.744 6.04398 3.61926 6.6639 0.537104 -18.804 75.867 -31.5781 50.1357 128.634 -64.2227 24.6112 -82.5972 -11.6072 -3.71593 4.55375 0.272541 -5.82806 -151.053 50.451 7.12311 165.549 46.516 -1.25941 -7.37604 4.41231 29.5221 -127.617 -46.426 5.13293 162.009 -25.334 -3.96713 -21.2088 -5.52419 -20.2867 91.4741 24.0871 -23.4992 13.2708 -17.8852 11.7141 
15.6974 7.95845 -33.8747 127.424 -69.0586 -145.154 -119.538 -4.28455 -8.54363 -5.69757 -1.38169 10.3812 -6.71234 -7.95919 5.07766 -79.4473 81.1007 99.7694 -109.486 -35.9742 -136.882 43.5691 -64.3624 167.398 -80.8256 6.02142 3.68344 6.67664 0.533328 -18.7736 75.8548 -31.6178 50.1774 128.902 -64.2202 24.8177 -82.6755 -11.6487 -3.72329 4.48174 0.285815 -5.82961 -150.881 49.7714 6.63822 165.623 45.5504 -1.28027 -7.08092 4.40317 29.2395 -127.749 -46.716 4.92872 162.11 -25.4325 -3.9728 -21.2005 -5.5361 -20.3587 91.6617 24.0553 -23.5809 13.1831 -17.8057 11.642 
15.66 7.9254 -33.8708 127.558 -68.9488 -145.098 -119.489 -4.31702 -8.58732 -5.66323 -1.38978 10.4173 -6.68054 -7.99005 5.10604 -79.1547 81.1882 99.286 -109.498 -35.9759 -136.911 43.5497 -64.3562 167.362 -80.8877 6.08185 3.67703 6.68015 0.539871 -18.7606 75.8335 -31.6397 50.1504 128.97 -64.1487 24.8388 -82.7419 -11.64 -3.75837 4.4418 0.294738 -5.81934 -150.742 49.0458 6.17678 165.724 44.6432 -1.30145 -6.79251 4.40185 28.9874 -127.844 -46.5695 4.8316 162.205 -25.1644 -3.94707 -21.1882 -5.52792 -20.2256 91.8601 23.9957 -23.6778 13.0969 -17.7106 11.6268 
15.671 7.9451 -33.8895 127.605 -68.9775 -145.019 -119.505 -4.30528 -8.57121 -5.61426 -1.38381 10.4114 -6.73415 -7.97123 5.04256 -79.4137 81.119 99.6204 -109.5 -35.9941 -136.884 43.5801 -64.3829 167.437 -80.8636 6.11468 3.62888 6.6712 0.545809 -18.7799 75.8243 -31.6374 50.1137 128.707 -64.1061 24.5098 -82.6897 -11.6377 -3.73188 4.49148 0.287656 -5.84714 -150.793 49.013 6.21448 165.744 44.6825 -1.30176 -6.76353 4.41306 28.9816 -127.922 -46.301 4.87907 162.219 -24.9341 -3.92515 -21.0609 -5.53727 -20.1099 91.8479 23.9677 -23.6759 13.138 -17.7058 11.684 
15.6892 7.95922 -33.8999 127.696 -69.0259 -144.906 -119.462 -4.30236 -8.55552 -5.66293 -1.38223 10.3768 -6.76197 -7.95093 4.99389 -79.6535 81.0686 99.9124 -109.497 -36.0057 -136.853 43.5666 -64.3954 167.434 -80.8302 6.00636 3.64826 6.68455 0.544373 -18.8567 75.8432 -31.6219 50.1463 128.655 -64.1587 24.4758 -82.6529 -11.6275 -3.71159 4.52675 0.277006 -5.83871 -151.017 49.8864 6.87 165.628 45.7946 -1.28486 -7.02999 4.46849 29.3993 -127.605 -46.7439 4.90262 162.058 -25.5703 -3.98614 -21.2956 -5.50958 -20.3602 91.781 24.0075 -23.5791 13.2204 -17.7531 11.7165 
15.6946 7.94101 -33.8983 127.823 -68.9736 -144.814 -119.298 -4.31145 -8.51042 -5.8254 -1.40978 10.3297 -6.74577 -7.96151 5.00195 -79.3693 81.1445 99.6014 -109.491 -35.9907 -136.864 43.4389 -64.3871 167.303 -80.845 5.96455 3.69928 6.65952 0.545318 -18.9056 75.8457 -31.6329 50.1781 129.043 -64.2038 24.9154 -82.7155 -11.6335 -3.72805 4.4855 0.282327 -5.83294 -151.255 50.4561 7.42477 165.565 46.5206 -1.2691 -7.1478 4.52882 29.7082 -127.357 -47.0392 4.96866 161.969 -25.8326 -4.01865 -21.4018 -5.49871 -20.4702 91.8477 24.0121 -23.5223 13.1746 -17.753 11.6463 
15.7027 7.93994 -33.9098 127.88 -68.9544 -144.743 -119.157 -4.29788 -8.4269 -5.98122 -1.42977 10.2395 -6.74382 -7.98367 5.04796 -79.1777 81.2038 99.3162 -109.497 -36.0001 -136.863 43.166 -64.3664 167.053 -80.9058 6.03103 3.70773 6.63135 0.549144 -18.9112 75.8264 -31.6371 50.1205 129.306 -64.2367 25.163 -82.7403 -11.715 -3.7042 4.4243 0.287163 -5.81044 -151.069 50.1368 7.05641 165.593 46.1289 -1.26916 -6.98061 4.49631 29.4129 -127.526 -46.4529 5.11098 162.036 -25.2194 -3.96139 -21.1183 -5.52129 -20.1716 91.8945 23.9821 -23.5753 13.155 -17.7433 11.6933 
15.729 7.97789 -33.9367 127.846 -69.0447 -144.725 -119.12 -4.28871 -8.38035 -6.0718 -1.43253 10.152 -6.78869 -7.93123 5.06369 -79.3524 81.2566 99.4354 -109.509 -36.0205 -136.856 43.0497 -64.3831 166.934 -80.8778 6.04464 3.67118 6.63156 0.560549 -19.0321 75.8162 -31.6057 50.019 129.158 -64.2879 25.0323 -82.6907 -11.6688 -3.68368 4.52246 0.271431 -5.7581 -150.756 50.0873 6.67678 165.57 46.1926 -1.27182 -7.03546 4.43171 29.1978 -127.755 -45.8428 5.16809 162.051 -24.5339 -3.90426 -20.7847 -5.54381 -19.8396 91.7359 24.0723 -23.4984 13.2783 -17.8421 11.7853 
15.7169 7.99894 -33.9364 127.707 -69.1154 -144.862 -119.167 -4.31028 -8.41052 -6.10054 -1.43669 10.135 -6.82802 -7.87796 5.03692 -79.5817 81.2459 99.7122 -109.521 -36.0199 -136.89 43.1254 -64.3846 166.958 -80.8186 6.03639 3.63878 6.65787 0.564632 -19.0537 75.8012 -31.6052 49.9662 129.112 -64.3587 25.0058 -82.6715 -11.6474 -3.67245 4.59227 0.272647 -5.77387 -150.692 50.1207 6.56198 165.54 46.2896 -1.28713 -7.08124 4.43289 29.2409 -127.828 -46.289 4.99085 162.005 -24.9729 -3.93923 -20.7529 -5.55767 -20.0201 91.5596 24.2125 -23.3917 13.38 -17.9477 11.7999 
